<?xml version="1.0" encoding="UTF-8"?>
<svg width="120px" height="120px" viewBox="0 0 120 120" version="1.1" xmlns="http://www.w3.org/2000/svg" xmlns:xlink="http://www.w3.org/1999/xlink">
    <!-- Generator: Sketch 53.1 (72631) - https://sketchapp.com -->
    <title>Group 2</title>
    <desc>Created with Sketch.</desc>
    <g id="Page-1" stroke="none" stroke-width="1" fill="none" fill-rule="evenodd">
        <g id="Group-2">
            <rect id="Rectangle" fill="#FFFFFF" x="0" y="0" width="120" height="120"></rect>
            <g id="noun_Image_4191299" transform="translate(51.000000, 51.000000)"></g>
            <g id="Group" transform="translate(51.000000, 51.000000)" fill="#AFAFAF" fill-rule="nonzero">
                <path d="M16.5,0 L1.5,0 C0.671572875,0 0,0.671572875 0,1.5 L0,16.5 C0,17.3284271 0.671572875,18 1.5,18 L16.5,18 C17.3284271,18 18,17.3284271 18,16.5 L18,1.5 C18,0.671572875 17.3284271,0 16.5,0 Z M1.5,1 L16.5,1 C16.7761424,1 17,1.22385763 17,1.5 L17,13 L13.09,10.056 C12.5566667,9.656 11.8233333,9.656 11.29,10.056 L8.244,12.35 C8.06622222,12.4833333 7.82177778,12.4833333 7.644,12.35 L5.652,10.854 C5.11800537,10.4559888 4.38599463,10.4559888 3.852,10.854 L1,13 L1,1.5 C1,1.22385763 1.22385763,1 1.5,1 Z M16.5,17 L1.5,17 C1.22385763,17 1,16.7761424 1,16.5 L1,14.249 L4.449,11.649 C4.62774245,11.5185928 4.87025755,11.5185928 5.049,11.649 L7.034,13.143 C7.56799463,13.5410112 8.30000537,13.5410112 8.834,13.143 L11.881,10.85 C12.0587778,10.7166667 12.3032222,10.7166667 12.481,10.85 L17,14.249 L17,16.5 C17,16.7761424 16.7761424,17 16.5,17 Z" id="Shape"></path>
                <path d="M7,9 C8.65685425,9 10,7.65685425 10,6 C10,4.34314575 8.65685425,3 7,3 C5.34314575,3 4,4.34314575 4,6 C4,7.65685425 5.34314575,9 7,9 Z M7,4 C8.1045695,4 9,4.8954305 9,6 C9,7.1045695 8.1045695,8 7,8 C5.8954305,8 5,7.1045695 5,6 C5,4.8954305 5.8954305,4 7,4 Z" id="Shape"></path>
            </g>
        </g>
    </g>
</svg>